<svg width="1958" height="296" viewBox="0 0 1958 296" fill="none" xmlns="http://www.w3.org/2000/svg">
<path fill-rule="evenodd" clip-rule="evenodd" d="M623.733 0H0V296H424.328C441.794 259.354 462.191 223.988 483.534 190.548C527.036 122.389 577.865 57.1134 623.733 0ZM1093.31 296H629.825C631.612 293.139 633.425 290.269 635.263 287.389C676.084 223.431 725.614 160.378 773.751 100.69C780.284 92.5898 786.864 84.4671 793.433 76.3573L793.437 76.3528L793.437 76.3522C814.47 50.3865 835.396 24.5527 854.343 0H1958V296H1626.35C1639.66 270.724 1653.83 243.705 1668.91 214.823L1706 143.755L1639.68 98.7218C1581.53 59.2365 1516.78 55.1853 1457.68 68.1376C1400.88 80.5836 1344.9 109.381 1293.1 142.582C1228.63 183.902 1160.36 239.058 1093.31 296ZM1387.32 296H1422.68C1427.82 286.338 1433.11 276.38 1438.54 266.122C1423.85 273.604 1407.76 282.89 1390.23 294.124C1389.26 294.746 1388.29 295.371 1387.32 296Z" fill="#666CF7"/>
</svg>
