<svg width="1525" height="1002" viewBox="0 0 1525 1002" fill="none" xmlns="http://www.w3.org/2000/svg">
<path fill-rule="evenodd" clip-rule="evenodd" d="M502.76 14.6296C544.391 41.7857 556.126 97.5492 528.97 139.181C502.617 179.581 463.206 228.236 423.412 277.363C416.841 285.475 410.26 293.599 403.726 301.701C355.589 361.389 306.059 424.442 265.238 488.4C223.983 553.038 195.427 612.862 184.659 665.475C174.414 715.528 180.793 754.894 204.686 789.251C221.601 813.574 235.545 818.797 246.566 820.387C261.738 822.577 286.773 819.518 325.262 802.099C403.987 766.469 498.562 690.255 605.723 598.223C620.153 585.831 634.799 573.162 649.603 560.356C739.277 482.789 834.751 400.205 923.076 343.592C974.874 310.391 1030.86 281.594 1087.65 269.148C1146.76 256.196 1211.5 260.247 1269.65 299.732L1335.97 344.766L1298.88 415.833C1264.13 482.421 1234.17 539.104 1208.49 587.364C1287.21 565.898 1380.62 563.998 1476.45 613.761C1520.56 636.667 1537.75 690.997 1514.85 735.11C1491.94 779.223 1437.61 796.414 1393.5 773.508C1336.13 743.72 1279.3 749.24 1222.78 772.313C1166.8 795.162 1119.79 831.739 1085.03 858.778C1083.24 860.169 1081.49 861.535 1079.77 862.873C1072.18 868.765 1061.93 876.696 1052.62 882.595C1048.63 885.119 1038.99 891.112 1026.55 895.228L1026.42 895.271C1020.96 897.083 970.638 913.776 930.347 872.352C911.886 853.371 906.539 831.872 904.958 819.449C903.38 807.039 904.6 796.829 905.51 791.197C907.33 779.936 910.8 770.327 912.858 764.962C917.379 753.173 924.074 739.301 931.309 725.003C943.414 701.082 962.753 665.025 989.599 614.969C1011.06 574.954 1037.32 525.992 1068.52 467.132C1053.83 474.614 1037.74 483.901 1020.21 495.135C943.739 544.15 859.75 616.71 769.015 695.099C753.863 708.19 738.522 721.443 722.997 734.776C619.832 823.377 505.844 917.947 399.479 966.086C345.423 990.551 283.78 1007.62 220.857 998.542C153.782 988.862 98.2127 951.415 56.908 892.021C-1.31329 808.302 -9.38779 715.872 8.31415 629.383C25.4921 545.453 67.2814 463.987 113.509 391.559C160.17 318.451 215.258 248.662 263.614 188.703C270.745 179.861 277.666 171.306 284.364 163.027C324.988 112.813 357.369 72.7873 378.208 40.84C405.364 -0.791722 461.128 -12.5265 502.76 14.6296ZM1080.92 829.419C1080.93 829.385 1080.95 829.35 1080.96 829.315C1080.75 829.94 1080.69 830.01 1080.92 829.419Z" fill="#FFEBD4"/>
</svg>
