<svg width="371" height="212" viewBox="0 0 371 212" fill="none" xmlns="http://www.w3.org/2000/svg">
<path d="M164.948 64.3333C164.385 64.3333 163.833 64.1458 163.39 63.7916L135.015 41.4635C134.406 40.9843 134.057 40.2656 134.057 39.4895C134.057 38.7187 134.406 38 135.015 37.5156L163.39 15.1927C163.833 14.8385 164.385 14.651 164.948 14.651C165.719 14.651 166.443 15 166.922 15.6093C167.333 16.1406 167.526 16.7968 167.443 17.4635C167.364 18.1302 167.026 18.7239 166.5 19.1406L140.635 39.4895L166.5 59.8385C167.026 60.2604 167.364 60.8541 167.443 61.5208C167.526 62.1875 167.333 62.8437 166.922 63.375C166.443 63.9791 165.719 64.3333 164.948 64.3333Z" fill="black"/>
<mask id="mask0_206_269" style="mask-type:luminance" maskUnits="userSpaceOnUse" x="132" y="12" width="38" height="54">
<path d="M132.932 12.6666H169.667V66H132.932V12.6666Z" fill="white"/>
</mask>
<g mask="url(#mask0_206_269)">
<path d="M164.948 13.5833C164.146 13.5833 163.365 13.8541 162.734 14.3489L134.354 36.677C133.479 37.3645 132.984 38.3853 132.984 39.4895C132.984 40.5989 133.484 41.6249 134.354 42.3072L162.734 64.6353C163.359 65.1301 164.146 65.401 164.948 65.401C166.057 65.401 167.083 64.901 167.766 64.0312C168.359 63.2812 168.62 62.3437 168.51 61.3958C168.391 60.4426 167.917 59.5937 167.167 58.9999L142.37 39.4895L167.167 19.9843C167.917 19.3853 168.391 18.5416 168.51 17.5885C168.62 16.6405 168.359 15.703 167.766 14.9478C167.083 14.078 166.052 13.5833 164.948 13.5833ZM164.948 15.7239C165.375 15.7239 165.797 15.9114 166.083 16.2708C166.578 16.901 166.469 17.8072 165.844 18.302L138.906 39.4895L165.844 60.6822C166.469 61.177 166.578 62.0833 166.083 62.7083C165.797 63.0728 165.375 63.2603 164.948 63.2603C164.635 63.2603 164.323 63.1614 164.057 62.953L135.677 40.6249C135.328 40.3541 135.125 39.9322 135.125 39.4895C135.125 39.0468 135.328 38.6301 135.677 38.3593L164.057 16.0312C164.318 15.8228 164.635 15.7239 164.948 15.7239Z" fill="black"/>
</g>
<path d="M202.391 64.3333C201.615 64.3333 200.896 63.9791 200.411 63.375C199.557 62.2864 199.745 60.7031 200.833 59.8385L226.703 39.4895L200.833 19.1406C199.745 18.2812 199.557 16.6979 200.411 15.6093C200.896 15 201.615 14.651 202.391 14.651C202.953 14.651 203.505 14.8385 203.943 15.1927L232.323 37.5156C232.932 38 233.281 38.7187 233.281 39.4895C233.281 40.2656 232.932 40.9843 232.318 41.4635L203.943 63.7916C203.505 64.1458 202.953 64.3333 202.391 64.3333Z" fill="black"/>
<mask id="mask1_206_269" style="mask-type:luminance" maskUnits="userSpaceOnUse" x="197" y="12" width="38" height="54">
<path d="M197.667 12.6666H234.719V66H197.667V12.6666Z" fill="white"/>
</mask>
<g mask="url(#mask1_206_269)">
<path d="M202.39 13.5833C201.286 13.5833 200.255 14.078 199.573 14.9478C198.349 16.4999 198.62 18.7603 200.172 19.9843L224.968 39.4895L200.172 58.9999C198.62 60.2239 198.349 62.4843 199.573 64.0312C200.255 64.901 201.286 65.401 202.39 65.401C203.192 65.401 203.974 65.1301 204.604 64.6353L232.984 42.3072C233.854 41.6249 234.349 40.5989 234.349 39.4895C234.349 38.3853 233.854 37.3645 232.989 36.677L204.609 14.3489C203.979 13.8541 203.192 13.5833 202.39 13.5833ZM202.39 15.7239C202.703 15.7239 203.021 15.8228 203.281 16.0312L231.661 38.3593C232.005 38.6301 232.208 39.0468 232.208 39.4895C232.208 39.9322 232.005 40.3541 231.661 40.6249L203.281 62.953C203.021 63.1614 202.703 63.2603 202.39 63.2603C201.963 63.2603 201.536 63.0728 201.255 62.7083C200.76 62.0833 200.87 61.177 201.495 60.6822L228.432 39.4895L201.495 18.302C200.87 17.8072 200.76 16.901 201.255 16.2708C201.536 15.9114 201.963 15.7239 202.39 15.7239Z" fill="black"/>
</g>
<path d="M169.568 77.8021C169.255 77.8021 168.948 77.7448 168.656 77.6355C168.031 77.3907 167.537 76.9167 167.266 76.3073C166.995 75.6875 166.979 75.0105 167.219 74.3855L194.938 2.7865C195.308 1.82817 196.25 1.17712 197.276 1.17712C197.589 1.17712 197.901 1.23962 198.188 1.349C199.479 1.85421 200.125 3.31254 199.625 4.60421L171.912 76.198C171.542 77.1563 170.594 77.8021 169.568 77.8021Z" fill="black"/>
<mask id="mask2_206_269" style="mask-type:luminance" maskUnits="userSpaceOnUse" x="165" y="0" width="37" height="80">
<path d="M165.667 0.104126H201.667V79.2708H165.667V0.104126Z" fill="white"/>
</mask>
<g mask="url(#mask2_206_269)">
<path d="M197.276 0.109375C195.807 0.109375 194.463 1.03646 193.937 2.40104L166.224 73.9948C165.88 74.8906 165.901 75.8594 166.286 76.7396C166.677 77.6146 167.38 78.2865 168.27 78.6302C168.687 78.7917 169.119 78.875 169.567 78.875C171.036 78.875 172.38 77.9531 172.911 76.5833L200.619 4.98958C201.338 3.14583 200.416 1.0625 198.573 0.354167C198.161 0.192708 197.724 0.109375 197.276 0.109375ZM197.276 2.25C197.453 2.25 197.63 2.28646 197.802 2.34896C198.546 2.63542 198.911 3.46875 198.625 4.21354L170.911 75.8073C170.692 76.3854 170.145 76.7344 169.567 76.7344C169.39 76.7344 169.213 76.7031 169.041 76.6354C168.296 76.349 167.932 75.5104 168.224 74.7708L195.932 3.17708C196.156 2.59896 196.698 2.25 197.276 2.25Z" fill="black"/>
</g>
<path d="M28.9434 144.389L16.9382 99.2072H0.349609V155.494H11.1777V108.509L23.5319 155.494H34.2871L46.5736 108.577V155.494H57.4694V99.2072H40.8809L28.9434 144.389Z" fill="black"/>
<path d="M83.5509 156.603C96.5978 156.603 105.692 147.582 105.692 135.296V135.228C105.692 123.015 96.5978 114.061 83.5509 114.061C70.5041 114.061 61.478 123.015 61.478 135.228V135.296C61.478 147.582 70.5718 156.603 83.5509 156.603ZM83.5509 146.749C76.9572 146.749 72.5145 141.754 72.5145 135.296V135.16C72.5145 128.775 76.8895 123.916 83.5509 123.916C90.2801 123.916 94.5874 128.775 94.5874 135.16V135.296C94.5874 141.754 90.2124 146.749 83.5509 146.749Z" fill="black"/>
<path d="M130.735 156.603C143.781 156.603 152.875 147.582 152.875 135.296V135.228C152.875 123.015 143.781 114.061 130.735 114.061C117.688 114.061 108.662 123.015 108.662 135.228V135.296C108.662 147.582 117.755 156.603 130.735 156.603ZM130.735 146.749C124.141 146.749 119.698 141.754 119.698 135.296V135.16C119.698 128.775 124.073 123.916 130.735 123.916C137.464 123.916 141.771 128.775 141.771 135.16V135.296C141.771 141.754 137.396 146.749 130.735 146.749Z" fill="black"/>
<path d="M167.783 155.494V124.608C170.35 124.192 172.85 123.916 174.793 123.916C179.929 123.916 182.705 125.791 182.705 130.785V155.494H193.673V129.468C193.673 117.53 185.137 114.061 175.278 114.061C171.257 114.061 163.413 114.962 156.751 116.145V155.494H167.783Z" fill="black"/>
<path d="M235.582 155.494V145.29H209.556V99.2072H198.592V155.494H235.582Z" fill="black"/>
<path d="M243.553 110.452C246.611 110.452 249.038 108.926 249.038 105.593C249.038 102.608 246.819 100.806 243.553 100.806C240.361 100.806 238.074 102.608 238.074 105.593C238.074 108.926 240.569 110.452 243.553 110.452ZM249.105 155.494V115.655H238.074V155.494H249.105Z" fill="black"/>
<path d="M275.963 114.061C261.875 114.061 253.057 120.931 253.057 133.561V133.702C253.057 146.4 261.385 153.692 275.614 153.692C277.974 153.692 280.265 153.41 282.417 152.994V154.66C282.417 159.66 280.333 161.811 273.739 161.811C270.062 161.811 263.745 160.837 259.792 159.171L262.219 169.374C264.719 170.483 270.271 171.525 275.198 171.525C284.917 171.525 293.453 167.707 293.453 155.77V118.015C289.286 116.072 282.765 114.061 275.963 114.061ZM264.094 133.77C264.094 126.9 268.469 123.916 275.963 123.916C278.114 123.916 280.265 124.192 282.417 124.89V143.072C280.057 143.624 277.906 143.832 276.031 143.832C268.396 143.832 264.094 140.712 264.094 133.837V133.77Z" fill="black"/>
<path d="M316.761 114.061C314.886 114.061 312.25 114.27 309.333 114.546V99.2072H298.302V155.494H309.333V124.608C311.833 124.192 314.469 123.915 316.344 123.915C321.479 123.915 324.188 125.79 324.188 130.785V155.494H335.224V129.468C335.224 117.53 326.615 114.061 316.761 114.061Z" fill="black"/>
<path d="M370.537 155.494V145.29H362.834C358.115 145.29 355.964 143.488 355.964 139.046V125.79H370.47V115.655H355.964V103.442H344.928V115.655H337.917V125.79H344.928V142.514C344.928 151.192 348.402 155.494 357.907 155.494H370.537Z" fill="black"/>
<path d="M116.197 199.234L110.619 178.25H102.916V204.391H107.947V182.568L113.681 204.391H118.681L124.384 182.604V204.391H129.447V178.25H121.744L116.197 199.234Z" fill="black"/>
<path d="M140.361 185.245C138.007 185.245 135.268 185.76 133.882 186.307L132.752 190.854C134.783 190.047 137.429 189.562 139.263 189.562C142.101 189.562 143.71 190.401 143.71 192.724V193.401C142.195 193.208 140.877 193.14 139.523 193.14C134.46 193.14 131.273 194.948 131.273 198.88V198.943C131.273 203.297 134.783 204.906 140.455 204.906C142.971 204.906 146.289 204.552 148.835 204.005V192.562C148.835 187.083 145.486 185.245 140.361 185.245ZM136.523 198.62C136.523 196.979 138.07 196.396 140.648 196.396C141.455 196.396 142.679 196.495 143.71 196.656V200.651C142.648 200.812 141.523 200.911 140.648 200.911C138.039 200.911 136.523 200.265 136.523 198.687V198.62Z" fill="black"/>
<path d="M156.146 204.391V190.854C156.567 190.755 158.661 190.594 159.432 190.594H162.208V185.891H158.599C156.922 185.891 153.729 186.021 151.021 186.599V204.391H156.146Z" fill="black"/>
<path d="M169.065 194.755V178.25H163.972V204.391H169.065V195.203L169.227 194.979L169.065 194.755ZM174.93 194.917L181.508 185.891H175.899L169.227 194.979L175.836 204.391H181.831L174.93 194.917Z" fill="black"/>
<path d="M201.453 195.75C201.453 189.146 197.844 185.146 191.912 185.146C186.047 185.146 182.276 189.208 182.276 194.979V195.01C182.276 200.875 186.302 204.875 192.526 204.875C196.136 204.875 198.683 203.745 200.547 202.583L198.323 198.62C196.974 199.588 195.006 200.396 192.75 200.396C189.943 200.396 188.11 198.588 187.594 196.203H201.453V195.75ZM191.881 189.307C194.36 189.307 195.844 190.917 196.229 193.047H187.625C188.11 190.917 189.657 189.307 191.881 189.307Z" fill="black"/>
<path d="M217.431 204.391V199.651H213.853C211.66 199.651 210.66 198.812 210.66 196.75V190.594H217.4V185.891H210.66V180.219H205.535V185.891H202.28V190.594H205.535V198.364C205.535 202.391 207.15 204.391 211.567 204.391H217.431Z" fill="black"/>
<path d="M221.84 183.474C223.257 183.474 224.387 182.76 224.387 181.213C224.387 179.828 223.356 178.99 221.84 178.99C220.356 178.99 219.293 179.828 219.293 181.213C219.293 182.76 220.455 183.474 221.84 183.474ZM224.418 204.391V185.891H219.293V204.391H224.418Z" fill="black"/>
<path d="M231.796 204.391V190.047C232.989 189.854 234.151 189.724 235.052 189.724C237.437 189.724 238.729 190.594 238.729 192.917V204.391H243.822V192.302C243.822 186.76 239.854 185.146 235.281 185.146C233.411 185.146 229.765 185.568 226.671 186.115V204.391H231.796Z" fill="black"/>
<path d="M256.319 185.146C249.777 185.146 245.683 188.338 245.683 194.203V194.271C245.683 200.167 249.548 203.552 256.157 203.552C257.251 203.552 258.319 203.422 259.319 203.229V204.005C259.319 206.323 258.35 207.323 255.287 207.323C253.579 207.323 250.647 206.875 248.808 206.099L249.938 210.838C251.095 211.354 253.678 211.838 255.964 211.838C260.475 211.838 264.438 210.062 264.438 204.521V186.984C262.506 186.083 259.475 185.146 256.319 185.146ZM250.808 194.302C250.808 191.109 252.839 189.724 256.319 189.724C257.319 189.724 258.319 189.854 259.319 190.177V198.62C258.22 198.88 257.22 198.974 256.35 198.974C252.803 198.974 250.808 197.526 250.808 194.333V194.302Z" fill="black"/>
</svg>
