<svg width="394" height="394" viewBox="0 0 394 394" fill="none" xmlns="http://www.w3.org/2000/svg">
<rect width="394" height="394" fill="#666CF7"/>
<path d="M58 159.451H184.361V184.814H58V159.451Z" fill="white"/>
<path d="M58 58H184.361V83.3626H58V58Z" fill="white"/>
<path d="M58 58H83.2721V184.813L58 184.814V58Z" fill="white"/>
<path d="M159.101 58H184.373V184.813H159.101V58Z" fill="white"/>
<path d="M58 210.175H184.361V235.538H58V210.175Z" fill="white"/>
<path d="M58 210.175H83.2721V336.988H58V210.175Z" fill="white"/>
<path d="M58 260.905H184.361V286.268H58V260.905Z" fill="white"/>
<path d="M209.636 58H335.997V83.3626H209.636V58Z" fill="white"/>
<path d="M209.636 58H234.911V134.095H209.636V58Z" fill="white"/>
<path d="M310.725 108.73H336V184.825H310.725V108.73Z" fill="white"/>
<path d="M209.636 108.733L336 108.73L335.997 134.096L209.636 134.095V108.733Z" fill="white"/>
<path d="M209.636 159.451H335.997V184.814H209.636V159.451Z" fill="white"/>
<path d="M209.636 210.175H335.997V235.538H209.636V210.175Z" fill="white"/>
<path d="M209.636 210.175H234.911V286.27H209.636V210.175Z" fill="white"/>
<path d="M310.725 260.905H336V337H310.725V260.905Z" fill="white"/>
<path d="M209.636 260.905H336L335.997 286.268L209.636 286.27V260.905Z" fill="white"/>
<path d="M209.636 311.629H335.997L336 337L209.636 336.991V311.629Z" fill="white"/>
</svg>
