<svg width="30" height="30" viewBox="0 0 30 30" fill="none" xmlns="http://www.w3.org/2000/svg">
<path d="M0.339844 11.0154H13.6828V13.684H0.339844V11.0154Z" fill="white"/>
<path d="M0.339844 0.340942H13.6828V3.00954H0.339844V0.340942Z" fill="white"/>
<path d="M0.339844 0.340942H3.00844V13.6839L0.339844 13.684V0.340942Z" fill="white"/>
<path d="M11.0155 0.340942H13.6841V13.6839H11.0155V0.340942Z" fill="white"/>
<path d="M0.339844 16.3524H13.6828V19.021H0.339844V16.3524Z" fill="white"/>
<path d="M0.339844 16.3524H3.00844V29.6954H0.339844V16.3524Z" fill="white"/>
<path d="M0.339844 21.6901H13.6828V24.3587H0.339844V21.6901Z" fill="white"/>
<path d="M16.3518 0.340942H29.6948V3.00954H16.3518V0.340942Z" fill="white"/>
<path d="M16.3518 0.340942H19.0206V8.34748H16.3518V0.340942Z" fill="white"/>
<path d="M27.0262 5.67863H29.6951V13.6852H27.0262V5.67863Z" fill="white"/>
<path d="M16.3518 5.67894L29.6951 5.67863L29.6948 8.34754L16.3518 8.34748V5.67894Z" fill="white"/>
<path d="M16.3518 11.0154H29.6948V13.684H16.3518V11.0154Z" fill="white"/>
<path d="M16.3518 16.3524H29.6948V19.021H16.3518V16.3524Z" fill="white"/>
<path d="M16.3518 16.3524H19.0206V24.359H16.3518V16.3524Z" fill="white"/>
<path d="M27.0262 21.6901H29.6951V29.6966H27.0262V21.6901Z" fill="white"/>
<path d="M16.3518 21.6901H29.6951L29.6948 24.3587L16.3518 24.359V21.6901Z" fill="white"/>
<path d="M16.3518 27.0272H29.6948L29.6951 29.6966L16.3518 29.6958V27.0272Z" fill="white"/>
</svg>
