<svg width="41" height="57" viewBox="0 0 41 57" fill="none" xmlns="http://www.w3.org/2000/svg">
<path d="M5.34005 16.0154H18.683V18.684H5.34005V16.0154Z" fill="white"/>
<path d="M5.34005 5.34099H18.683V8.00959H5.34005V5.34099Z" fill="white"/>
<path d="M5.34005 5.34099H8.00864V18.684L5.34005 18.684V5.34099Z" fill="white"/>
<path d="M16.0157 5.34099H18.6843V18.684H16.0157V5.34099Z" fill="white"/>
<path d="M5.34005 21.3525H18.683V24.0211H5.34005V21.3525Z" fill="white"/>
<path d="M5.34005 21.3525H8.00864V34.6954H5.34005V21.3525Z" fill="white"/>
<path d="M5.34005 26.6902H18.683V29.3588H5.34005V26.6902Z" fill="white"/>
<path d="M21.352 5.34099H34.695V8.00959H21.352V5.34099Z" fill="white"/>
<path d="M21.352 5.34099H24.0208V13.3475H21.352V5.34099Z" fill="white"/>
<path d="M32.0264 10.6787H34.6953V18.6852H32.0264V10.6787Z" fill="white"/>
<path d="M21.352 10.679L34.6953 10.6787L34.695 13.3476L21.352 13.3475V10.679Z" fill="white"/>
<path d="M21.352 16.0154H34.695V18.684H21.352V16.0154Z" fill="white"/>
<path d="M18.682 37.3638H5.339V40.0324H18.682V37.3638Z" fill="white"/>
<path d="M18.682 37.3638H16.0131V45.3703H18.682V37.3638Z" fill="white"/>
<path d="M8.00755 42.7016H5.3387V50.7082H8.00755V42.7016Z" fill="white"/>
<path d="M18.682 42.702L5.3387 42.7016L5.339 45.3705L18.682 45.3703V42.702Z" fill="white"/>
<path d="M18.682 48.0382H5.339V50.7068H18.682V48.0382Z" fill="white"/>
<path d="M0 0H2.66885V56.0458H0V0Z" fill="white"/>
<path d="M37.364 0H40.0328V56.0458H37.364V0Z" fill="white"/>
<path d="M0.00378101 56.0455L40.0328 56.0458L40.0326 53.3769H0.00378101V56.0455Z" fill="white"/>
<path d="M0.00378101 2.67302H40.0326V0.00443029H0.00378101V2.67302Z" fill="white"/>
<path d="M21.352 21.3525H34.695V24.0211H21.352V21.3525Z" fill="white"/>
<path d="M21.352 21.3525H24.0208V29.359H21.352V21.3525Z" fill="white"/>
<path d="M32.0264 26.6902H34.6953V34.6967H32.0264V26.6902Z" fill="white"/>
<path d="M21.352 26.6902H34.6953L34.695 29.3588L21.352 29.359V26.6902Z" fill="white"/>
<path d="M21.352 37.3638H24.0208V45.3703H21.352V37.3638Z" fill="white"/>
<path d="M32.0264 37.3638H34.6953V45.3703H32.0264V37.3638Z" fill="white"/>
<path d="M32.0264 42.7016H34.6953V50.7082H32.0264V42.7016Z" fill="white"/>
<path d="M21.352 42.7016H34.6953V45.3703H21.352V42.7016Z" fill="white"/>
<path d="M21.352 32.0272H34.695L34.6953 34.6967L21.352 34.6958V32.0272Z" fill="white"/>
</svg>
