<svg width="327" height="57" viewBox="0 0 327 57" fill="none" xmlns="http://www.w3.org/2000/svg">
<rect x="5.33984" y="16.0154" width="13.343" height="2.6686" fill="black"/>
<rect x="5.33984" y="5.34094" width="13.343" height="2.6686" fill="black"/>
<rect x="5.33984" y="5.34094" width="2.6686" height="13.343" fill="black"/>
<rect x="16.0156" y="5.34094" width="2.6686" height="13.343" fill="black"/>
<rect x="5.33984" y="21.3524" width="13.343" height="2.6686" fill="black"/>
<rect x="5.33984" y="21.3524" width="2.6686" height="13.343" fill="black"/>
<rect x="5.33984" y="26.6902" width="13.343" height="2.6686" fill="black"/>
<rect x="21.3521" y="5.34094" width="13.343" height="2.6686" fill="black"/>
<rect x="21.3521" y="5.34094" width="2.66885" height="8.00654" fill="black"/>
<rect x="32.0264" y="10.6787" width="2.66885" height="8.00654" fill="black"/>
<rect x="21.3521" y="10.679" width="13.343" height="2.6686" fill="black"/>
<rect x="21.3521" y="16.0154" width="13.343" height="2.6686" fill="black"/>
<rect width="13.343" height="2.6686" transform="matrix(-1 0 0 1 18.6821 37.3638)" fill="black"/>
<rect width="2.66885" height="8.00654" transform="matrix(-1 0 0 1 18.6821 37.3638)" fill="black"/>
<rect width="2.66885" height="8.00654" transform="matrix(-1 0 0 1 8.00732 42.7017)" fill="black"/>
<rect width="13.343" height="2.6686" transform="matrix(-1 0 0 1 18.6821 42.7019)" fill="black"/>
<rect width="13.343" height="2.6686" transform="matrix(-1 0 0 1 18.6821 48.0382)" fill="black"/>
<rect width="2.66885" height="56.0458" fill="black"/>
<rect x="37.3638" width="2.66885" height="56.0458" fill="black"/>
<rect width="40.0288" height="2.66859" transform="matrix(1 0 0 -1 0.00390625 56.0454)" fill="black"/>
<rect width="40.0288" height="2.66859" transform="matrix(1 0 0 -1 0.00390625 2.67297)" fill="black"/>
<rect x="21.3521" y="21.3524" width="13.343" height="2.6686" fill="black"/>
<rect x="21.3521" y="21.3524" width="2.66885" height="8.00654" fill="black"/>
<rect x="32.0264" y="26.6902" width="2.66885" height="8.00654" fill="black"/>
<rect x="21.3521" y="26.6902" width="13.343" height="2.6686" fill="black"/>
<rect x="21.3521" y="37.3638" width="2.66885" height="8.00654" fill="black"/>
<rect x="32.0264" y="37.3638" width="2.66885" height="8.00654" fill="black"/>
<rect x="32.0264" y="42.7017" width="2.66885" height="8.00654" fill="black"/>
<rect x="21.3521" y="42.7017" width="13.343" height="2.6686" fill="black"/>
<rect x="21.3521" y="32.0272" width="13.343" height="2.6686" fill="black"/>
<path d="M311.899 36.4966V34.0406H326.533V36.4966H320.633V52.9497H317.79V36.4966H311.899Z" fill="black"/>
<path d="M308.677 34.0406V52.9497H305.824V34.0406H308.677Z" fill="black"/>
<path d="M282.49 34.0406H285.952L291.972 48.7395H292.194L298.213 34.0406H301.676V52.9497H298.961V39.2665H298.786L293.209 52.922H290.956L285.38 39.2573H285.204V52.9497H282.49V34.0406Z" fill="black"/>
<path d="M259.156 34.0406H262.618L268.638 48.7395H268.86L274.879 34.0406H278.342V52.9497H275.627V39.2665H275.452L269.875 52.922H267.622L262.046 39.2573H261.87V52.9497H259.156V34.0406Z" fill="black"/>
<path d="M252.146 34.0406H255.008V46.4774C255.008 47.8008 254.697 48.9734 254.075 49.9952C253.454 51.0108 252.58 51.811 251.453 52.3958C250.327 52.9744 249.006 53.2637 247.492 53.2637C245.984 53.2637 244.667 52.9744 243.541 52.3958C242.414 51.811 241.54 51.0108 240.918 49.9952C240.297 48.9734 239.986 47.8008 239.986 46.4774V34.0406H242.839V46.2466C242.839 47.1022 243.027 47.8624 243.402 48.5272C243.784 49.1919 244.322 49.7151 245.018 50.0968C245.713 50.4722 246.538 50.66 247.492 50.66C248.452 50.66 249.28 50.4722 249.976 50.0968C250.678 49.7151 251.213 49.1919 251.582 48.5272C251.958 47.8624 252.146 47.1022 252.146 46.2466V34.0406Z" fill="black"/>
<path d="M233.566 39.008C233.468 38.1339 233.062 37.4568 232.348 36.9767C231.634 36.4904 230.735 36.2473 229.652 36.2473C228.876 36.2473 228.205 36.3704 227.639 36.6166C227.073 36.8567 226.633 37.1891 226.319 37.6138C226.011 38.0323 225.857 38.5094 225.857 39.0449C225.857 39.4942 225.962 39.882 226.171 40.2082C226.386 40.5345 226.666 40.8084 227.011 41.03C227.362 41.2454 227.737 41.427 228.137 41.5747C228.538 41.7163 228.922 41.8332 229.292 41.9256L231.138 42.4057C231.741 42.5534 232.36 42.7535 232.994 43.0058C233.628 43.2582 234.216 43.5906 234.758 44.003C235.299 44.4154 235.736 44.9263 236.069 45.5357C236.407 46.145 236.576 46.8744 236.576 47.7239C236.576 48.7949 236.299 49.7459 235.745 50.5769C235.198 51.4078 234.4 52.0634 233.354 52.5435C232.314 53.0236 231.055 53.2636 229.578 53.2636C228.162 53.2636 226.937 53.039 225.903 52.5896C224.869 52.1403 224.06 51.5032 223.475 50.6784C222.89 49.8474 222.567 48.8626 222.505 47.7239H225.368C225.423 48.4071 225.645 48.9765 226.032 49.432C226.426 49.8813 226.928 50.2168 227.537 50.4384C228.153 50.6538 228.827 50.7615 229.559 50.7615C230.366 50.7615 231.083 50.6353 231.711 50.383C232.345 50.1244 232.843 49.7674 233.206 49.3119C233.57 48.8503 233.751 48.3117 233.751 47.6962C233.751 47.136 233.591 46.6775 233.271 46.3205C232.957 45.9634 232.529 45.668 231.988 45.4341C231.452 45.2002 230.846 44.994 230.169 44.8155L227.934 44.2061C226.42 43.7937 225.22 43.1874 224.333 42.3872C223.453 41.587 223.013 40.5283 223.013 39.2111C223.013 38.1216 223.309 37.1706 223.9 36.3581C224.49 35.5456 225.291 34.9147 226.3 34.4653C227.31 34.0099 228.448 33.7821 229.716 33.7821C230.997 33.7821 232.126 34.0068 233.105 34.4561C234.09 34.9054 234.865 35.5241 235.432 36.3119C235.998 37.0937 236.293 37.9923 236.318 39.008H233.566Z" fill="black"/>
<path d="M209.953 39.008C209.855 38.1339 209.448 37.4568 208.734 36.9767C208.02 36.4904 207.122 36.2473 206.038 36.2473C205.263 36.2473 204.592 36.3704 204.026 36.6166C203.459 36.8567 203.019 37.1891 202.705 37.6138C202.398 38.0323 202.244 38.5094 202.244 39.0449C202.244 39.4942 202.348 39.882 202.558 40.2082C202.773 40.5345 203.053 40.8084 203.398 41.03C203.749 41.2454 204.124 41.427 204.524 41.5747C204.924 41.7163 205.309 41.8332 205.678 41.9256L207.525 42.4057C208.128 42.5534 208.747 42.7535 209.381 43.0058C210.015 43.2582 210.603 43.5906 211.144 44.003C211.686 44.4154 212.123 44.9263 212.455 45.5357C212.794 46.145 212.963 46.8744 212.963 47.7239C212.963 48.7949 212.686 49.7459 212.132 50.5769C211.584 51.4078 210.787 52.0634 209.741 52.5435C208.701 53.0236 207.442 53.2636 205.965 53.2636C204.549 53.2636 203.324 53.039 202.29 52.5896C201.256 52.1403 200.446 51.5032 199.862 50.6784C199.277 49.8474 198.954 48.8626 198.892 47.7239H201.754C201.81 48.4071 202.031 48.9765 202.419 49.432C202.813 49.8813 203.315 50.2168 203.924 50.4384C204.54 50.6538 205.214 50.7615 205.946 50.7615C206.752 50.7615 207.47 50.6353 208.097 50.383C208.731 50.1244 209.23 49.7674 209.593 49.3119C209.956 48.8503 210.138 48.3117 210.138 47.6962C210.138 47.136 209.978 46.6775 209.658 46.3205C209.344 45.9634 208.916 45.668 208.374 45.4341C207.839 45.2002 207.233 44.994 206.555 44.8155L204.321 44.2061C202.807 43.7937 201.607 43.1874 200.72 42.3872C199.84 41.587 199.4 40.5283 199.4 39.2111C199.4 38.1216 199.695 37.1706 200.286 36.3581C200.877 35.5456 201.677 34.9147 202.687 34.4653C203.696 34.0099 204.835 33.7821 206.103 33.7821C207.383 33.7821 208.513 34.0068 209.492 34.4561C210.476 34.9054 211.252 35.5241 211.818 36.3119C212.385 37.0937 212.68 37.9923 212.705 39.008H209.953Z" fill="black"/>
<path d="M182.882 52.9497V34.0406H189.622C191.087 34.0406 192.303 34.293 193.269 34.7978C194.242 35.3025 194.968 36.0011 195.448 36.8936C195.928 37.78 196.169 38.8049 196.169 39.9682C196.169 41.1254 195.925 42.1441 195.439 43.0243C194.959 43.8984 194.233 44.5785 193.26 45.0648C192.294 45.5511 191.078 45.7942 189.613 45.7942H184.507V43.3382H189.355C190.278 43.3382 191.029 43.2059 191.607 42.9412C192.192 42.6765 192.62 42.2918 192.891 41.7871C193.162 41.2824 193.297 40.6761 193.297 39.9682C193.297 39.2542 193.159 38.6356 192.882 38.1124C192.611 37.5892 192.183 37.1891 191.598 36.9121C191.02 36.629 190.259 36.4874 189.318 36.4874H185.735V52.9497H182.882ZM192.217 44.4185L196.889 52.9497H193.639L189.059 44.4185H192.217Z" fill="black"/>
<path d="M167.216 52.9497V34.0406H179.071V36.4966H170.069V42.258H178.453V44.7047H170.069V50.4938H179.182V52.9497H167.216Z" fill="black"/>
<path d="M154.574 52.9497H148.453V34.0406H154.768C156.621 34.0406 158.212 34.4192 159.541 35.1763C160.871 35.9272 161.89 37.0075 162.598 38.4171C163.312 39.8205 163.669 41.504 163.669 43.4675C163.669 45.4372 163.308 47.1299 162.588 48.5456C161.874 49.9613 160.84 51.0508 159.486 51.8141C158.132 52.5712 156.495 52.9497 154.574 52.9497ZM151.306 50.4568H154.417C155.857 50.4568 157.055 50.186 158.009 49.6443C158.963 49.0965 159.677 48.3056 160.151 47.2715C160.625 46.2312 160.862 44.9632 160.862 43.4675C160.862 41.9841 160.625 40.7253 160.151 39.6912C159.683 38.6571 158.984 37.8723 158.055 37.3368C157.125 36.8013 155.971 36.5335 154.593 36.5335H151.306V50.4568Z" fill="black"/>
<path d="M144.291 34.0406V52.9497H141.669L132.057 39.0818H131.882V52.9497H129.029V34.0406H131.669L141.29 47.927H141.466V34.0406H144.291Z" fill="black"/>
<path d="M122.019 34.0406H124.881V46.4774C124.881 47.8008 124.57 48.9734 123.948 49.9952C123.327 51.0108 122.453 51.811 121.326 52.3958C120.2 52.9744 118.879 53.2637 117.365 53.2637C115.857 53.2637 114.54 52.9744 113.414 52.3958C112.287 51.811 111.413 51.0108 110.791 49.9952C110.17 48.9734 109.859 47.8008 109.859 46.4774V34.0406H112.712V46.2466C112.712 47.1022 112.9 47.8624 113.275 48.5272C113.657 49.1919 114.195 49.7151 114.891 50.0968C115.586 50.4722 116.411 50.66 117.365 50.66C118.326 50.66 119.153 50.4722 119.849 50.0968C120.551 49.7151 121.086 49.1919 121.455 48.5272C121.831 47.8624 122.019 47.1022 122.019 46.2466V34.0406Z" fill="black"/>
<path d="M106.302 43.4952C106.302 45.5141 105.933 47.2499 105.194 48.7026C104.455 50.1491 103.443 51.2632 102.156 52.0449C100.876 52.8205 99.4203 53.2082 97.7891 53.2082C96.1518 53.2082 94.6899 52.8205 93.4035 52.0449C92.1232 51.2632 91.1137 50.146 90.375 48.6933C89.6364 47.2407 89.2671 45.508 89.2671 43.4952C89.2671 41.4762 89.6364 39.7435 90.375 38.297C91.1137 36.8444 92.1232 35.7303 93.4035 34.9547C94.6899 34.173 96.1518 33.7821 97.7891 33.7821C99.4203 33.7821 100.876 34.173 102.156 34.9547C103.443 35.7303 104.455 36.8444 105.194 38.297C105.933 39.7435 106.302 41.4762 106.302 43.4952ZM103.477 43.4952C103.477 41.9563 103.227 40.6607 102.729 39.6081C102.236 38.5494 101.559 37.7492 100.697 37.2075C99.8419 36.6597 98.8724 36.3858 97.7891 36.3858C96.6996 36.3858 95.7271 36.6597 94.8715 37.2075C94.0159 37.7492 93.3388 38.5494 92.8402 39.6081C92.3478 40.6607 92.1016 41.9563 92.1016 43.4952C92.1016 45.034 92.3478 46.3328 92.8402 47.3915C93.3388 48.444 94.0159 49.2442 94.8715 49.792C95.7271 50.3337 96.6996 50.6045 97.7891 50.6045C98.8724 50.6045 99.8419 50.3337 100.697 49.792C101.559 49.2442 102.236 48.444 102.729 47.3915C103.227 46.3328 103.477 45.034 103.477 43.4952Z" fill="black"/>
<path d="M74.6421 52.9497V34.0406H86.3679V36.4966H77.4951V42.258H85.5277V44.7047H77.4951V52.9497H74.6421Z" fill="black"/>
<path d="M244.988 21.9497V3.04065H256.843V5.49662H247.841V11.258H256.224V13.7047H247.841V19.4938H256.954V21.9497H244.988Z" fill="black"/>
<path d="M241.574 9.18977H238.693C238.582 8.57424 238.376 8.03258 238.075 7.56477C237.773 7.09697 237.404 6.69996 236.967 6.37372C236.53 6.04749 236.04 5.80128 235.499 5.63509C234.963 5.46889 234.394 5.3858 233.791 5.3858C232.701 5.3858 231.725 5.65971 230.864 6.20753C230.008 6.75535 229.331 7.55862 228.832 8.61733C228.34 9.67604 228.094 10.9687 228.094 12.4952C228.094 14.034 228.34 15.3328 228.832 16.3915C229.331 17.4502 230.011 18.2504 230.873 18.792C231.735 19.3337 232.704 19.6045 233.781 19.6045C234.378 19.6045 234.945 19.5245 235.48 19.3645C236.022 19.1983 236.511 18.9552 236.948 18.6351C237.385 18.315 237.755 17.9241 238.056 17.4625C238.364 16.9947 238.576 16.4592 238.693 15.856L241.574 15.8652C241.42 16.7947 241.121 17.6502 240.678 18.432C240.241 19.2075 239.678 19.8785 238.989 20.4447C238.305 21.0049 237.524 21.4388 236.644 21.7466C235.763 22.0544 234.803 22.2082 233.763 22.2082C232.126 22.2082 230.667 21.8205 229.386 21.0449C228.106 20.2632 227.097 19.146 226.358 17.6933C225.626 16.2407 225.259 14.508 225.259 12.4952C225.259 10.4762 225.629 8.74352 226.367 7.29702C227.106 5.84437 228.115 4.73026 229.396 3.95469C230.676 3.17297 232.132 2.7821 233.763 2.7821C234.766 2.7821 235.702 2.92675 236.57 3.21605C237.444 3.4992 238.229 3.91776 238.924 4.47174C239.62 5.01956 240.195 5.69049 240.651 6.48452C241.106 7.2724 241.414 8.17415 241.574 9.18977Z" fill="black"/>
<path d="M209.111 21.9497V3.04065H215.851C217.316 3.04065 218.532 3.29302 219.498 3.79775C220.47 4.30249 221.197 5.00111 221.677 5.89363C222.157 6.78 222.397 7.80485 222.397 8.96821C222.397 10.1254 222.154 11.1441 221.668 12.0243C221.188 12.8984 220.461 13.5785 219.489 14.0648C218.522 14.5511 217.307 14.7942 215.842 14.7942H210.736V12.3382H215.583C216.506 12.3382 217.257 12.2059 217.836 11.9412C218.421 11.6765 218.849 11.2918 219.119 10.7871C219.39 10.2824 219.526 9.67607 219.526 8.96821C219.526 8.25419 219.387 7.63558 219.11 7.11238C218.839 6.58918 218.412 6.18909 217.827 5.9121C217.248 5.62896 216.488 5.48738 215.546 5.48738H211.964V21.9497H209.111ZM218.445 13.4185L223.117 21.9497H219.867L215.288 13.4185H218.445Z" fill="black"/>
<path d="M202.101 3.04065H204.963V15.4774C204.963 16.8008 204.652 17.9734 204.03 18.9952C203.409 20.0108 202.535 20.811 201.408 21.3958C200.282 21.9744 198.962 22.2637 197.447 22.2637C195.939 22.2637 194.622 21.9744 193.496 21.3958C192.369 20.811 191.495 20.0108 190.873 18.9952C190.252 17.9734 189.941 16.8008 189.941 15.4774V3.04065H192.794V15.2466C192.794 16.1022 192.982 16.8624 193.357 17.5272C193.739 18.1919 194.277 18.7151 194.973 19.0968C195.668 19.4722 196.493 19.66 197.447 19.66C198.408 19.66 199.235 19.4722 199.931 19.0968C200.633 18.7151 201.168 18.1919 201.538 17.5272C201.913 16.8624 202.101 16.1022 202.101 15.2466V3.04065Z" fill="black"/>
<path d="M186.384 12.4952C186.384 14.5141 186.015 16.2499 185.276 17.7026C184.537 19.1491 183.525 20.2632 182.238 21.0449C180.958 21.8205 179.502 22.2082 177.871 22.2082C176.234 22.2082 174.772 21.8205 173.485 21.0449C172.205 20.2632 171.196 19.146 170.457 17.6933C169.718 16.2407 169.349 14.508 169.349 12.4952C169.349 10.4762 169.718 8.74352 170.457 7.29702C171.196 5.84437 172.205 4.73026 173.485 3.95469C174.772 3.17297 176.234 2.7821 177.871 2.7821C179.502 2.7821 180.958 3.17297 182.238 3.95469C183.525 4.73026 184.537 5.84437 185.276 7.29702C186.015 8.74352 186.384 10.4762 186.384 12.4952ZM183.559 12.4952C183.559 10.9563 183.309 9.66066 182.811 8.6081C182.318 7.54939 181.641 6.7492 180.78 6.20753C179.924 5.65971 178.954 5.3858 177.871 5.3858C176.782 5.3858 175.809 5.65971 174.954 6.20753C174.098 6.7492 173.421 7.54939 172.922 8.6081C172.43 9.66066 172.184 10.9563 172.184 12.4952C172.184 14.034 172.43 15.3328 172.922 16.3915C173.421 17.444 174.098 18.2442 174.954 18.792C175.809 19.3337 176.782 19.6045 177.871 19.6045C178.954 19.6045 179.924 19.3337 180.78 18.792C181.641 18.2442 182.318 17.444 182.811 16.3915C183.309 15.3328 183.559 14.034 183.559 12.4952Z" fill="black"/>
<path d="M163.539 8.00796C163.441 7.1339 163.034 6.45682 162.32 5.97671C161.606 5.49044 160.708 5.2473 159.624 5.2473C158.849 5.2473 158.178 5.37041 157.612 5.61662C157.045 5.85668 156.605 6.18906 156.291 6.61378C155.983 7.03234 155.83 7.50938 155.83 8.04489C155.83 8.49423 155.934 8.88201 156.144 9.20824C156.359 9.53447 156.639 9.80838 156.984 10.03C157.335 10.2454 157.71 10.427 158.11 10.5747C158.51 10.7163 158.895 10.8332 159.264 10.9256L161.111 11.4057C161.714 11.5534 162.333 11.7535 162.967 12.0058C163.601 12.2582 164.188 12.5906 164.73 13.003C165.272 13.4154 165.709 13.9263 166.041 14.5357C166.38 15.145 166.549 15.8744 166.549 16.7239C166.549 17.7949 166.272 18.7459 165.718 19.5768C165.17 20.4078 164.373 21.0634 163.327 21.5435C162.287 22.0236 161.028 22.2636 159.55 22.2636C158.135 22.2636 156.91 22.039 155.876 21.5896C154.842 21.1403 154.032 20.5032 153.447 19.6784C152.863 18.8474 152.54 17.8626 152.478 16.7239H155.34C155.396 17.4071 155.617 17.9765 156.005 18.432C156.399 18.8813 156.901 19.2168 157.51 19.4384C158.126 19.6538 158.8 19.7615 159.532 19.7615C160.338 19.7615 161.055 19.6353 161.683 19.383C162.317 19.1244 162.816 18.7674 163.179 18.3119C163.542 17.8503 163.724 17.3117 163.724 16.6962C163.724 16.136 163.564 15.6775 163.244 15.3205C162.93 14.9634 162.502 14.668 161.96 14.4341C161.425 14.2002 160.818 13.994 160.141 13.8155L157.907 13.2061C156.393 12.7937 155.193 12.1874 154.306 11.3872C153.426 10.587 152.986 9.52832 152.986 8.21108C152.986 7.12159 153.281 6.1706 153.872 5.3581C154.463 4.5456 155.263 3.91468 156.273 3.46534C157.282 3.00985 158.421 2.7821 159.689 2.7821C160.969 2.7821 162.099 3.00677 163.077 3.45611C164.062 3.90545 164.838 4.52406 165.404 5.31193C165.97 6.09366 166.266 6.99233 166.291 8.00796H163.539Z" fill="black"/>
<path d="M142.183 3.04065V21.9497H139.561L129.95 8.08184H129.774V21.9497H126.921V3.04065H129.562L139.183 16.927H139.358V3.04065H142.183Z" fill="black"/>
<path d="M111.255 21.9497V3.04065H123.11V5.49662H114.108V11.258H122.492V13.7047H114.108V19.4938H123.221V21.9497H111.255Z" fill="black"/>
<path d="M94.6245 21.9497V3.04065H101.365C102.836 3.04065 104.054 3.30841 105.021 3.84392C105.987 4.37943 106.71 5.11191 107.191 6.04136C107.671 6.96466 107.911 8.0049 107.911 9.1621C107.911 10.3255 107.668 11.3719 107.181 12.3013C106.701 13.2246 105.975 13.9571 105.002 14.4987C104.036 15.0343 102.82 15.302 101.355 15.302H96.7204V12.883H101.097C102.026 12.883 102.78 12.7229 103.359 12.4029C103.937 12.0766 104.362 11.6335 104.633 11.0733C104.904 10.5132 105.039 9.87611 105.039 9.1621C105.039 8.44808 104.904 7.81409 104.633 7.26011C104.362 6.70613 103.934 6.27218 103.35 5.95826C102.771 5.64434 102.008 5.48738 101.06 5.48738H97.4775V21.9497H94.6245Z" fill="black"/>
<path d="M91.0675 12.4952C91.0675 14.5141 90.6982 16.2499 89.9596 17.7026C89.2209 19.1491 88.2084 20.2632 86.9219 21.0449C85.6416 21.8205 84.1859 22.2082 82.5547 22.2082C80.9174 22.2082 79.4555 21.8205 78.1691 21.0449C76.8888 20.2632 75.8793 19.146 75.1407 17.6933C74.402 16.2407 74.0327 14.508 74.0327 12.4952C74.0327 10.4762 74.402 8.74352 75.1407 7.29702C75.8793 5.84437 76.8888 4.73026 78.1691 3.95469C79.4555 3.17297 80.9174 2.7821 82.5547 2.7821C84.1859 2.7821 85.6416 3.17297 86.9219 3.95469C88.2084 4.73026 89.2209 5.84437 89.9596 7.29702C90.6982 8.74352 91.0675 10.4762 91.0675 12.4952ZM88.2422 12.4952C88.2422 10.9563 87.9929 9.66066 87.4944 8.6081C87.0019 7.54939 86.3249 6.7492 85.4631 6.20753C84.6075 5.65971 83.6381 5.3858 82.5547 5.3858C81.4652 5.3858 80.4927 5.65971 79.6371 6.20753C78.7815 6.7492 78.1044 7.54939 77.6059 8.6081C77.1134 9.66066 76.8672 10.9563 76.8672 12.4952C76.8672 14.034 77.1134 15.3328 77.6059 16.3915C78.1044 17.444 78.7815 18.2442 79.6371 18.792C80.4927 19.3337 81.4652 19.6045 82.5547 19.6045C83.6381 19.6045 84.6075 19.3337 85.4631 18.792C86.3249 18.2442 87.0019 17.444 87.4944 16.3915C87.9929 15.3328 88.2422 14.034 88.2422 12.4952Z" fill="black"/>
</svg>
